/* XPM */
static char *_573fe88073e4a9aa9f4aee8adde45e1x1FgodLkesf1Nx4U[] = {
/* columns rows colors chars-per-pixel */
"100 100 83 1 ",
"  c #0C0F22",
". c #0F1023",
"X c #151324",
"o c #1B1526",
"O c #1F1827",
"+ c #1F1728",
"@ c #201727",
"# c #211927",
"$ c #201728",
"% c #241928",
"& c #2D1D2B",
"* c #301F2C",
"= c #34212D",
"- c #3B252E",
"; c #372430",
": c #3C2530",
"> c #3D2630",
", c #3E2730",
"< c #3E2631",
"1 c #3E2731",
"2 c #3F2831",
"3 c #40272D",
"4 c #41272E",
"5 c #42282E",
"6 c #44282E",
"7 c #44292E",
"8 c #402630",
"9 c #402731",
"0 c #402831",
"q c #402832",
"w c #422932",
"e c #452930",
"r c #462A31",
"t c #472B31",
"y c #452A32",
"u c #462A32",
"i c #492B31",
"p c #4A2B32",
"a c #4B2C30",
"s c #4C2C30",
"d c #4E2D31",
"f c #4C2C32",
"g c #4C2D33",
"h c #4E2D32",
"j c #4E2E33",
"k c #502F33",
"l c #512F33",
"z c #532F33",
"x c #522F34",
"c c #573133",
"v c #533034",
"b c #543034",
"n c #573234",
"m c #583233",
"M c #593234",
"N c #5B3334",
"B c #5B3336",
"V c #5D3334",
"C c #5D3434",
"Z c #5C3436",
"A c #5E3436",
"S c #633635",
"D c #633636",
"F c #643636",
"G c #643736",
"H c #653736",
"J c #663836",
"K c #683836",
"L c #693937",
"P c #6A3A37",
"I c #6B3A37",
"U c #6E3C38",
"Y c #723D38",
"T c #733E39",
"R c #743E38",
"E c #743E39",
"W c #773F39",
"Q c #773F3A",
"! c #774039",
"~ c #77403A",
"^ c #78403A",
"/ c #7A413A",
"( c #7D423B",
/* pixels */
"XXX&&&;9<<2;2<2<<2;2<<2<2bNlOXX=<;<2;2<;vYWvXXo&&*&&&<<-<<;2<<<;;<2<yNbdXXo&&&&&&**&=<><2<22<<2;0NvN",
"oXX&&&;9<2<222<22<2<<22-<bNNOXX=2<2<222;vY!NXXo&&&&&*;<<222<<222222;ybNdoXX&*&*&&&&&><>><2;2;22<yNNl",
"XXX%&&;2<<2<222<<2<<2<-<2zbNOXX=2-222<2;vW!vXXo&*&*&&-9-;<<<<<<<2<<=ymAdoXX&&&&&***&;<>>2<2;2-2-<NbN",
"&%&&&&-<-2<2<2;22-<2;0vvd%##=-=<2<2<<20<0iyvDSNooo&&&***=&=&****=-bc0###XXX&&*&&&&&&;<<><22<<0vbi###",
"&**&&&-<;2>22<2<2-20>ymmvXXX=222<<222;22-<;dW!JXXX&&&&&&&&&&&&&&&-mB7XXXoXo&&&*&&&&&;>>><2;29ymmdXXX",
"&&&&&&;<2>2><22<<<<;<5mbboXX=22;2<2;<2<<2<;dY!JXXX&&&&&**&**&&&*&5mAyXXXXXX&&&&&&&&&=2<22022<yNmjXXX",
"&&&**&-<>2<2<2<22<ylli&&&===;2<<<2<2<2<2<2<2djdbbvOoOo#oo$#o++O+o#&&%XXooXo&&&&&&&&&=<;<<<0=<-%&&%%%",
"&&&&&&;<;22<2<2-9;ylNdXXX<<<2<2<2;2<222;<<22;;yY^YoXXXXoXXXXXXXXXXXXXoXoXXX&&&&&&&&&><<<-<0-0*XXX***",
"&=&&&&-2<22<222<<<yNAdoXX-2-;<<222<22<222<;22<u~YPoXXXXXXXXXXXXXXX.XXXXXoXo&*=&&&=&&--9<<<9<y=XXo*&&",
"&&&&&&--<<2-;<-<<9;==&%%%<2<22<22<2<<2;2<22<22yYYPoXo=-<------4ifffd-XXXXXXOOO&&&&&&**====*%##Xoo&&&",
"&&&&&&-0<>><<-2<;0*XXX*&*<2;22;2<2<22<22<2<22=yU~PoXXvNNABNABNIW!!!(vXoXXoXXXX&&&&&&&&&&&&#XXXXXo&*&",
"&&&&&&--22<2222220=XXo&&=;<<2<2<222;<2<22<2;<>7!~UXXXdNNNNbNBzSWYY!!v..XXXXXXX&&**&&****&=%XXoXXo***",
"#%####&&&%&%&%&%&%&##%&&&;2<<2<2<2<2;22;<200fdf50-&%&2dfffdfiijNNvNvv7>-oXXXXoO#$%#%$%$$#%ooXXoXo$@@",
"XXXXXXXXXXXXXXXXXXo&**&&&<2<222<2<2<22<22<=ivNfXXX202<-;;2;;9<<;;;<-d^!IoXXoXXXXXXXXXXXXXXXXXooooXXo",
"X.XXXX.....XXoXoXX$&&&&&&22<;2<2<222<<=2;<;yAAvXXo-2<22<22<22<<<<2<-dY!J.XXXoXXoXXXXXXXXXXXXX....X..",
"--------2<22%XXXoXo&&&&&&;2-2<2<2;2<2<020fyy-<-#%%-2;2<<2<2<<2<<2<2-fCAv-2-XXXoXX$#$&******=*=4----4",
"!WY^WWWW!!Y(yXoXXXO&&&&&&2222<<2;2<2-<<<iNN7XXo<22<;2<222<2<2<2;<<;2<;-0!^UoXXoXX&&&fANNNNNNNG~WWWWW",
"RRYWWYYWYWY^- XXoXO&&&&&*;<;<2222<2<<<<;iNAyXXo<2<22<<;2<2<2<2222<22<227YYPoXXXXX%&&yAbblNNbvA!YWYYW",
"SDDDGGGGSSDPf&=%XXO&&&&&&20-2<2;2<<<<<yy<yi-oo%<<<<2<22<2<222<2<<22;22-yY!PoXXoOo&&&0vvdvvzblbGGDDDS",
"<-;<;<<;<;<;m!(dXXO&&&&&&<2<<2<22<2<;dNS-XX$&&*<2-2<22;2<2;2<2<22<22<<;fY^PXXX&&&&&&-<2;1;11;1<;----",
"<222<2<2<2<;b!^f.Xo&*&&&&<2;2<2;;2<--iNB-XXo&&*<2;222<2<11>222222<2<-2=fY~PoXX&&&&&&=2<<111q22<2<2<<",
"2<2;2<2<222;bPUj##%&&&&&*;2<<22<2<009yfl=oo@&&*<2<;2<2<2111<;2<222<2<00yYYPoXX&&&&&&;<<2q1112;2<2<2<",
"<2<2<2;22;2-<2;bWYcXXo&&&2<<<2-22<dNN=XX@*&&&&*-2-2<2;2<112>2<2<2;2<<22yY~GoXo*=&&&&=2;22<1q<2<2<2<<",
"2<2<2<222<<<<2;vY!cXXo&&&-222;2<<<dND- X@*&&&&*<<<22<22211>2>2>2<2<2-2=yYYPoXX#&&&&&>2<<2><<2<2<2<<<",
";2<<1111111111;vYYbooo&&&-<;<<-22;dvv=XX@*&*&&*<1111111>111111112<22-2-fYWIoXo&&&&*&;<;<<2<2;222<222",
"22<21111111111115<dIUAoXX&&=<<2<<2#XoXXX@*&&&&*<111111121111111122<<<<<yYYIXXX%&&&&&-<<<2<2<222;2;<2",
"2<2<1111q111111;<;dW^JXXX&&&;222<2#XXXoXo*&&&&*-1;11112>111111112;2<<2<yYYUoXX&&&&&&-<<222<2<2<22>2<",
">2<21111<1;111112;dYYSoXo&&&-2---2&XoXXX@*&&*&*-111111<211111111<2<2;2-yYYIoXX&&&&&&=22;2;2<2<2<<2<2",
"111111112<<2<211<-0fydDSAOooooo#oooXXoXXooo#&&&21;11<2;22;2<1111<2<;2lvd%%%oXXooo&&&-<;222<2<2<22>11",
"11111111<22<2<>2<22;;yW!UoXXXXXXXXXXoXXoXXXo&&=<11q12<2222<q1111<22-yNmdXXXXXXXoX%&&=2<22;2<2<222<11",
"111111112;22>11<2<2<<yYYPoXXooXXXXXXXXXXXXX+&&=;2<<2<2<2221111112-<>ymmdXXXXXXXXX%*&-<<-<2<2<2;2>111",
"11111111<2221111<<-2;iYWPoXX#%%-7iy50jNbmbNyo+#<<2;<<<2<2<111;11<0dzy&&=y77775vNN&oo*2<<2<<22;2<1111",
"111111112<2222222<<<;iYWPoXX&&&jANNNNP~~!!^NXXO-<-<2;22<2<<2;<<2<yNNyX.ONBBBNmY!!=.X&0-22<222<<2222<",
"11111111<2<2<2;<;<<2<y!!YoXX%&&dNNNmvGWYY!^N..o222<<<222<22222<;;fNN0XX#NbBbAbU~!= X&222-2;0<22<<2;2",
"111111112<2;2<2<0<0ddf--<#%%=>=2fjyfgjvvvvvvfd5%%&-2-22-;-2-22ydj5&==&&=fdydf7vvvdfd=#%=<<2;2<222<2<",
"1111111>;2<2<2-22<yNbf.XX&&&<<2<=2<;;;<;;>=f!!JoXX;2<2-22<<<<;fNN-.Xoy22;;2;<<;;;J!!-.X&22-<;<2<<2<2",
"11112>222<2<2<2<-;yNNjXXX&&&-2<2222<2<2<2<;d!WDX.X222000202222dAS-XX#<><2222<22<>J^^-..#022<22<222<2",
"1111>2><22<22;<0fdy===###===;2<-<2;2<2<2<22yvNb55-%&%&%&&&#&&#===&#O&2<-<<;2<<<2<dmmd47=%&=2;<-2;22<",
"11112>2<222<<2;yNN0XXX&&=<<<22<2<22<222<2-2;;-2!^UoXXXXXXXXXXXXXXo&&=<<<2<2<2<;<2;-=S^(7.X%0<-2<;2<2",
"1111<2<2<2;2<22dBAyXXo&&&<<<;2-<2<<2<2;2<2<22<fW^UX.XXXXXXXXXXXXX#&&&2-<<2<2<222220-A^^4 X%002;22<2<",
"11<<222<<2<22;2---=@@#===<<;2<<2<2<21111111;2-0AAb-<<+XoXXoXoXoO+%&&*<-92>2><2;<<2<-lAAf--=&&=-2<222",
"11<<;<2-<<<--22&XXo*&=0<2<<2<2<22<2>11111111<<2;-2Y~~%XXXoXoXX#=&&*&*<<9>2>2<222<<<2<;-v!(dXX#2-;<;<",
"111<2;2<9<<<2<0*XXO&&&<<-22;2<2211>1111111112<2<>2U~U#XXXoXXXX#=&&&&=<<;2>2<2<2<2<2;2<>b!!f..O220<2<",
";;;>;;--;=--===&oo#&&=<<<<2<<2;21111111111112<-222P~^#XXXXoXXX#&&&&&*9<<2<<2<2<2<22<22;dDJd&=====-;-",
"&&*%&&&&&&&&$XX+**&&&*<<<22<2<2<11111111112<<<2<-2UY~#XoXooXoX#*&&&&=111<2>12;2<2<2;2<2---v!!NXXo&&&",
"*&*&&**&**&*$XX+*&&*&&<2;2<2<2<<11111111;q20;2<<22YW^%.XXXXXXXO*&&*&&1112>11<222;2<2<2<<0=v!!v.XX*&*",
"&&&&&&%&%&&&@XX#&&&&&&<<<<2>2<22111111112<2;2<><00DSA%XoXXXoXX#&&&&&;;1;11112<222<2<2;220-dPUv%#%&&%",
"o.XXoXXXXXXXXoX#*&&&&=;2<<>2<22;1111111122<<2<<NNloXoXXXooXoXX%&&&&&=<111111<2<222<2<22<<2<2;jWWSXXX",
"XXXXXXXXXXXXXXX#*&&*&;<2;2<2<2<2;2<2<2<2;<2<<<ybAloXXXXXXXXXXX$&&&&&*92<2<2<2<2;2<2<2<2;;<<<;jYWJXXo",
"XooooooXooXooXX#&&&&&&<<<22<2<2<2<2<2<2222<<200lljoXoooXXoXooo$&&*&&*<-<<2;2<2<2<2<2<2222<22;jY!SXXX",
"-->fvdJIU-XXoXX#&&&&&&<<<2<222<222<2<22;22;ybbdooo-;;lbllllGIW4XX@*&=<<<2<222<2<2;222<2<2<2<<dYYJXXo",
"<<-lNvUW^-.XXXXO=&&&&*<<<;2<2;2<2<222;<<2<<yNNdXXo<90lNNNNNLYQ-XX@*&*9<-<2<222;222;2<2<22-<0;jWWSoXX",
"<<<vNvIY!-.oXXX#&&&&&*<<-222<2<2<2<22<;2<<>ylBdXXX-2;bNzNcbIYW5XX#&&=<2-2<2<2<2<2<2<<2;<<0<<;dWWGoXX",
"<<<0y0iy7bSI-XXO*&&*&*<2<22;2<2<2<2;-<22ylly##%-;=<<20y0yy0yiylSI7oX#2<2;22;<2<2<2<22<222;yvc7#%%--=",
"-<2--<=<-A^(-XX#&&&&&&<<<2<2<2;22<22<2<<fmNyXXo<9<9<<<<-=<<-<;NY^d.X#0--2<-22;2<<<2;<2;22<dvmyXXo<9<",
"<<<<2200-AYW5.XO*&&&&=<<-22<2<22;2<<<<<-imByXXo<<<-22-22<2<<<;NW^i X#02-2<2<<22222222<0<<;iNA7XXo9<<",
";<<<<-22<ydfvbA-o@%*&*<<-<<<<<<-2<22-ylv4%&&%%&-1111<;<<<<<;2-yddvbNi##&<2<--2>2<<;2-2-yll4&&&%%&<2-",
"22222<<;<><;m!(d.Xo*&*<9<<-<--<<<<;<;dvA- Xo***<111>2222<22<<22>;b^(bXXo<-<<<-<2<;<-2<=dmA- .o*&&<2<",
"222;2<<2<2<;vY^dXX@*&*<9<2<<9<992<<2-fAA>XX$*&*<1;>22<2;2<222;2<;b!!b.Xo222222002<0<220jBA-XX#&&*<<<",
"2<<2<22<2<2-NW!aXXX%@%**======**========&%%%&&*<112<>2<2<2;222<2<yvvvff5%%&%%%%##&%&%&%&==&%#%&&=-<<",
"<2<2<2;22<2;b!!a.XXXXo&&&&&&&&&&&&&&&oXX+*&*&&=<11112<2<2<2<<2;22<>;j^(GXXXXXXXXXXXXXXXXXXo**&&&&;02",
"2<2<2<22<2<<b^!aXooXXX**&&*&****&*&*=#XX#&&&&&&<11;122<2;2<22<<2;<2;dU^AoXXXoXX..XXXX..XXX+&&&&&*<2<",
"<2;2<2<22<2;bY^f.XXooX%%%%$$%$%%$%###oXX$&&*&&=;2<q<2;2<222<2<2<222<j^!SoXoXXo&=====-55&XX$*&&&&*<<;",
"2<222<20;22;NY!aXoXXXXXXXXXXXXXXXXXXXXXX$*&&&&=;<<<0<2<2<222;2<22;2>dU!SXXoXXXvANNNNU!(7XX#*&&&&*<22",
"<22;2<<;<-<>N^(d.oX..XXXX.XXXX.XX.XXoXoXO*&&&&*<<<<2<2<22<222<<2;22;lY!GoXXXXXdNNlNbPW^5 .o*&&&&*;2<",
"2<<22222<yyyydd-o@%**=&=&=&=-----4#XoXXXo*&&&&*<<<2<2<2;<2;2<22<222;dYYGXXo#%%yvdjjjvAAd--=##&&&*<2<",
";2<<2;2<<dbA= X$**-BNNNANANmY^Y!W(-XoXXX$*&&&&*<<;22<2222<222<22<22<jWYGoXo202<;;<><;<;N!(dXoo&&&<2-",
"222<<2<<;dAA=XXo*%-VNNbbNbbAURRYY!- XXXX#&*&&&*<2<2<2<2<<2<2<2;2<;<;j^^GXXX-0<<222<<2<;N!!f.Xo&&=<2<",
"222=22yyyy5i*o+%&&-lllvlkvvkAJSSSSi*=#XX$&*&&&*<<2<2<2222<2;<2;2<<yyibNd###;<<222<2<2<;jDDf==&&#&;02",
"<222<;vcN*.X$*&&&&=<<;-<-<-;-<<><;A!(5XX#*%&&&*<2;2<2;2<22<2<<22<imN0XX+<22<;2<2<222;<2<--v!^N.Xo<<-",
"2<2<<<vcA*XX$*&&&&*<<9<222<2<2222-BR^5.Xo&&&&&*<<<<2;2<22;2<<2<<;iNB5XXo<2;2222;2<2;2<<2--v!!c.Xo2<<",
"<2<<2<fdl&XX$*&&*&*9-<2<2<2<222;<-cUUy##&&&&*&*-2<222<2<<2<22;2y0yfl-oo#-2<<<<<2<2<222;22;dIUN##%;-<",
";<-<<<#XoXoX$&&*&&=<<22<;222<2<;2<<2;vY!fXXO&&&<;<<2<<2;22<2<-fbD-XX$&&*<0><2<2<2;2<2<2<<2<2;dYYGXXX",
"22220<#XXXXX%*&&&&=2<;<2222;2<22-2<2;N!!fXXo&&=<222-2<<2<-2<2<fcB-XX$&&*<<<222<222<2<2<2<2;2;v!!GXXo",
"-<---<#XXooX%&&&&&=;-22<<2<2<22<2<2<;bYWaXoO&&=<;<;022<<20-20<ydb-XXo&&*<2<<2;2<2<2<2;22<<2<;jYYSXXo",
"XXoXXooXXXXX#*&&&&=2-<222<2<2<2<;2<22009vIUvXXo&*&<2-2;<20=fvN=Xoo&&&&&*<2;2<2<2<2<222;22-<2;d~!DoXX",
"XXXXXXXXXooX#&&&&&&2<-2;<2<2<2;22;2<2;2-v!!vXXo&&&-02222<2<dNA=XXo&&*&&*<<-22<2<2<2;2<2<2<2<<jY~DXXX",
"oXoXXXXXXXXX#=&&&&;2<<222<2<2<22<22<<22<vY!cXXo&&=<-<<2-2;;dvN-XX%*&&&&*;2<<<222<22222<2;<<-;jYYDXXo",
"djjAGG&XoXoX#&&&&&*<<<<2;222<2<22<2;2<<=2fydSGNoooooooOoooo###OXX#&&&*&*<2<22<2;2<2<2;-22<yvvu%%&==-",
"NbvYW~=XoXXX%&&&&&=<<;2<222;2<2<<222<2<2<;-dW^GXXXXXXXXXXXoXXXXXX#*&&&&*<2;2<2<2<2<2<2<<2<fmmuXXo<22",
"bNNUYW=.XXXX#&&&&&*<2<2<2<2;2<2<2<222<<;02;dWYSoXX+XXXXXXXXXXXXXX$&&&&&*;2<222<22222>>>>>>dNNyXXo<<<",
"yyydddjNc*XXO*&&&&&2-<<2;2<222<2<2;2<2<2<2<dYYGXXXXXX&==474lzm=XX$*&&&&*<<<<2;2<;22<2>>yjd0#&&===<2-",
"<><;;;J^^5.o#*&&&&=2-2<22<2<222<2<2;2;2<<2;jYWSoX+XXX-2<lAmUQ(yXo+*&&&&*-222<2<2>2<2>2>jnN2.X#2222;<",
"2<<22<J!W- X#*&&=&&<<;2<22<2<2;2<222<22220;jYWGXXXXX.-2<lNmIR^4 X+*&*&&*<2;<2<202<2<>>>jNA>XXO2;<<2<",
"<<<20-dbldda=o#&&&=1;1<2<2<22<2<2<2<<2<2<2<jY!JXXX***-2<yiidbbjii=O$%&&*22-<<-<-><<<<<0>=&=&&=<<;222",
"2<2;<0;<-A((5.Xo&&*1<1292<2<<2;2<2<22<2<2<;gYYJXXo<202;0<;<<<;NW(dXX+&&*;<-<<<<<<;<<2-0%.X%0<2;2<22<",
"2<2<2=2<-VYR5XX#&&;1<:<<<222<2222<22;2-2;;;d~^IXXX<><;2;<2<<2;NQ!f .o&&=<<2099-92<<220q&XX#<;<2<<<<2",
"<2<2<2<<<VR^5.oo%$&1<<<;<;-2;<<<2;<-<<22yfdf07-#O#>><<2<<<0<<;iNmd45-#%%=;===*-==;==&#&%&%=22-<2<>2<",
"2<<2<;22>A~!5.oXXXO222-2<-22--2<<<2<=22;0NN0.XX&&*>>>>2>111111;1=b^(NXXo&&&&&&&&&&&&oXX&522>22222222",
";22<<2-<=A^(5XXoXX#52222000000022<220022jNDyXXo&&*><>2>211111;11<b!^b..X&=&**&&*=&&=#X.%2->>>;<2;22<",
"22<22;yyuaak&XXXXXO&&&&&*&&&&&&&*&&*&&&&=<>=++#&&&<2>22>11111111;fAAc-2-#%%#%%%%#%#%#%#=2<<22;2<2<2<",
"<2;2<<lNN&.XXXoXXoXXXXXXXXXXXXXXXXXXXXXXXXXO&&&&&&<<><>2111>11110<-=f!!JoXoXXXXXXXXX=022<2-222<2<2<2",
"000=<=bAA=.XXXXXXX.X.XXXX..XXXoXoXXXXoXXXXX+&&*&&&>1>2<2>2>2222<<-22dRRJX.XooXXXoXXX&2<<2<22<2<22<22",
"<-<yyyyyy*O#####&&%&&&&#&==&oXXoXooXoXoXo+o+&*&&&&>1>>2>2>2>22;2<2<;ySSC==&XXXooXo#o&<;2<<<;2<2<<2;2",
"<2<lvc&XX&2<22>fNANNNNVBNY!!%XoXXXoXXXXX#**&&&&&&*>>>1>2<22<2<2<22<<-0-y~!UoXXXXo%*&=2-<2;<2<2;22<2;",
"<;<cmc&XX&2222>fnbNbbNcbbY!!#.XXXXXXXXXX+*&&&&&*&&>1>11>2<>2<2<22;2220=iUYPoXooXX%&&-2<2222<2<22<222",
"0y0ddj&oo=<;22<ybbbbbbbbbJPP=#%oXXo###%#&&&&&&&&&=<2<<2<2;222;2<22<;2<<0Y!PoXXooo&&&=-<;2<2<222<2<2;",
"mNN#XX&0<<2<-2<<22<<<22<<2<<PY!=XX-NvJW!d.oo&&&&&&-2=2<2<2<2<2222<20-2;fYYPoXX&&&&&&-2-222<2;2<2<222",
"vNb#XX=<<<<22-0;;<-<<-<;2;<<PYW=XX-AvJYYi.o#&&&&&&--<22<2<2<2<222<2<<2>y~YPoXX&&&&&&=<;<2;2<2<2<2<2<",
"NNb#XX=<-<<-<2<22<222<2222-<JY!=XX-NvS~~f.Xo&&&&&&>4-0<2;2<2<2<2<2<2;22uYYPoXX&&&&&&-22222<2<2<2<2<2"
};
